<svg version="1.1" id="Layer_1" xmlns="http://www.w3.org/2000/svg" xmlns:xlink="http://www.w3.org/1999/xlink" x="0px" y="0px"
	 width="100%" viewBox="0 0 1024 1024" enable-background="new 0 0 1024 1024" xml:space="preserve">
<path fill="#000000" opacity="1.000000" stroke="none" 
	d="
M605.251953,610.281250 
	C576.480530,627.270142 553.095032,649.408997 535.152344,677.182007 
	C531.039368,683.548401 527.902710,690.463257 525.715881,697.942810 
	C538.257385,684.296082 550.177490,670.114197 568.032959,662.797852 
	C556.397705,677.533264 547.040527,693.617615 536.580017,710.308411 
	C540.369263,710.072510 541.832031,708.154175 543.337708,706.660095 
	C589.372864,660.980164 646.102783,636.870483 708.766846,625.026672 
	C725.325806,621.896912 742.146301,621.043396 758.883118,624.586121 
	C760.487610,624.925720 762.168213,625.086426 763.603516,627.014526 
	C758.670959,631.524231 753.709656,636.060303 748.465393,640.855042 
	C751.883240,644.028259 755.780823,645.514771 759.330383,647.530518 
	C764.253418,650.326233 769.437561,652.724304 774.116882,655.876221 
	C794.849976,669.841736 793.338135,697.269836 771.159790,708.747131 
	C760.011780,714.516174 747.673889,717.144531 735.839417,721.080200 
	C679.913391,739.679016 623.955811,758.183105 567.997864,776.686035 
	C564.125977,777.966309 561.002930,779.901123 558.230835,783.120667 
	C534.566711,810.604065 490.410004,810.016052 467.683594,781.979309 
	C465.076904,778.763489 461.702179,777.296265 458.068848,776.092041 
	C435.152466,768.496277 412.131073,761.207092 389.310181,753.335938 
	C347.912628,739.057495 305.928741,726.604187 264.388306,712.778870 
	C260.766510,711.573425 257.144287,710.208496 253.771515,708.441833 
	C231.831497,696.949829 230.715622,668.754333 251.697845,655.566528 
	C257.047607,652.204163 262.733124,649.378662 268.231293,646.248352 
	C270.658112,644.866577 273.325653,643.803040 275.492096,641.186951 
	C271.522339,635.396790 265.005554,632.247681 259.724335,626.744629 
	C266.208771,623.731506 272.367767,622.903870 278.632080,622.696838 
	C308.481476,621.710388 337.183655,627.900574 365.441650,636.749573 
	C406.609070,649.640991 443.207306,670.565979 475.231293,699.460449 
	C479.554108,703.360840 483.613922,707.552368 487.815857,711.588013 
	C488.022736,711.786621 488.425598,711.781250 489.863525,712.194885 
	C480.582458,694.687866 469.284546,679.424866 459.584503,662.953247 
	C475.404724,673.342834 489.754791,685.327209 501.347809,700.595825 
	C499.871399,693.075317 496.621429,686.390930 493.027283,679.879883 
	C484.790100,664.957947 473.108826,652.905151 460.979401,641.145996 
	C436.335815,617.254578 407.368683,600.745422 375.023224,589.841614 
	C358.188049,584.166382 340.804535,581.438110 323.124146,580.328613 
	C319.639496,580.110046 316.951508,581.184937 314.095459,583.431702 
	C306.120483,589.705383 297.539734,595.146484 287.285156,599.670532 
	C290.876892,601.306519 293.727203,601.418213 296.575287,601.715820 
	C312.289551,603.357605 328.061005,604.749023 343.388977,608.811279 
	C349.323792,610.384277 355.078125,612.671570 360.846802,614.816101 
	C362.434387,615.406250 364.917450,615.998535 364.393158,618.319763 
	C363.805176,620.922852 361.173737,620.421448 359.338135,620.119080 
	C351.298492,618.794861 343.313843,617.137512 335.275085,615.807129 
	C307.591614,611.225586 279.985199,610.274963 252.599762,617.889832 
	C251.643082,618.155945 250.641983,618.284241 249.653015,618.408203 
	C246.951813,618.746704 244.985443,617.317139 244.032776,615.118225 
	C242.972580,612.671143 245.303802,611.603333 246.934540,610.560303 
	C261.671234,601.135010 276.439117,591.759033 291.767761,583.305969 
	C293.198334,582.517029 294.901825,582.092285 296.134033,579.898865 
	C292.633240,575.826660 289.012512,571.555481 285.326904,567.340942 
	C278.856018,559.941467 272.321106,552.598022 265.860687,545.189514 
	C262.021118,540.786499 262.242279,539.959717 267.725983,538.205383 
	C284.813965,532.738647 302.363403,532.079407 320.084076,533.272522 
	C335.245514,534.293396 350.072113,537.289856 364.727600,541.121887 
	C368.625885,542.141235 370.754578,541.156067 372.853027,537.752258 
	C397.333282,498.044189 421.389862,458.055389 446.838623,418.974426 
	C455.855560,405.127350 459.538147,391.482117 459.039154,375.174896 
	C458.081329,343.872864 458.717590,312.520386 458.834961,281.189392 
	C458.848022,277.700256 458.039490,275.342926 454.936401,273.351532 
	C441.359528,264.638458 437.620087,250.917908 441.306000,236.829727 
	C444.847626,223.292908 457.816650,213.332825 472.612488,213.143661 
	C499.606384,212.798523 526.610413,212.766098 553.604309,213.091736 
	C568.008301,213.265488 580.360168,223.591995 584.312500,237.507767 
	C588.306396,251.569824 583.703979,264.170898 571.035278,272.557007 
	C567.857849,274.660339 567.257751,277.092865 567.264221,280.479553 
	C567.336060,317.977112 567.350098,355.474976 567.254456,392.972443 
	C567.244263,396.979370 568.201294,400.450623 570.285889,403.813171 
	C593.461121,441.195282 616.603027,478.598175 639.723328,516.014282 
	C644.364929,523.525818 649.053528,531.018372 653.368408,538.717041 
	C655.233398,542.044678 657.280762,542.442078 660.652832,541.440063 
	C679.739197,535.768799 699.189697,532.468262 719.182251,532.743286 
	C731.892029,532.918152 744.420837,534.225647 756.637634,537.886169 
	C762.315247,539.587341 762.792175,540.778015 758.966858,545.173584 
	C749.782532,555.727173 740.447449,566.149597 731.181274,576.632141 
	C730.310486,577.617310 729.497253,578.653381 728.646362,579.679077 
	C729.558411,582.321045 731.982849,582.987854 733.872131,584.186829 
	C747.656677,592.934387 762.276062,600.313660 775.701843,609.642761 
	C777.674438,611.013428 781.021484,611.982971 779.096924,615.694214 
	C777.425720,618.916748 774.784302,618.889709 771.822144,617.891296 
	C745.367065,608.974854 718.577759,611.757751 691.771057,615.673706 
	C686.175598,616.491028 680.616638,617.566162 675.051575,618.581299 
	C671.591675,619.212463 668.520264,618.577637 664.643005,615.355164 
	C687.562378,605.430664 711.132629,602.892273 734.826721,599.950806 
	C727.956177,595.706055 720.640076,592.183472 715.032471,586.709534 
	C708.031433,579.875244 700.395569,579.987549 691.601624,581.028992 
	C660.825500,584.673828 632.420837,595.008240 605.251953,610.281250 
M494.500244,233.347504 
	C488.336121,233.350830 482.168762,233.230011 476.008820,233.391815 
	C469.629578,233.559418 464.233948,237.609390 462.799713,242.972565 
	C461.622803,247.373459 464.645386,253.938583 469.375702,257.101776 
	C473.088226,259.584351 477.263672,260.590454 481.678131,260.644135 
	C486.842072,260.706940 492.012146,260.561859 497.169678,260.761780 
	C501.235382,260.919342 504.999634,264.501801 505.007507,267.806885 
	C505.015228,271.059113 501.234070,274.871765 497.361237,275.220856 
	C494.882690,275.444275 492.354889,275.435547 489.873077,275.234802 
	C486.143982,274.933228 484.873901,276.560303 484.887604,280.176239 
	C484.910278,286.162476 484.405090,292.149902 484.396881,298.137177 
	C484.354309,329.125000 484.322693,360.113220 484.452881,391.100647 
	C484.500671,402.472290 481.723022,412.472076 475.365295,422.327972 
	C455.055450,453.812897 435.665558,485.891174 415.916656,517.737976 
	C410.562531,526.371948 405.199280,535.000244 399.830872,543.625305 
	C398.337006,546.025391 397.645691,548.191589 401.027374,549.663940 
	C406.950470,552.242798 412.843262,554.891296 419.046356,557.642639 
	C420.113525,556.013611 421.061188,554.682007 421.891876,553.281067 
	C429.791168,539.959167 437.744263,526.668091 445.502258,513.264221 
	C447.367279,510.041992 449.504395,508.584320 453.407440,508.598450 
	C492.391724,508.739380 531.376953,508.742920 570.361267,508.600739 
	C574.411987,508.585968 576.781921,510.013977 578.799194,513.375000 
	C585.655762,524.798767 592.731506,536.091125 599.737122,547.425293 
	C601.744690,550.673340 603.091919,555.287903 606.012451,556.766785 
	C609.530151,558.548096 613.185547,554.456421 616.789185,552.937317 
	C626.015869,549.047913 626.939148,546.481812 621.913025,537.969116 
	C599.132324,499.385895 574.937622,461.675385 550.992737,423.817078 
	C544.407410,413.405243 540.453857,403.208160 540.737000,390.399261 
	C541.539490,354.098724 540.888977,317.767456 541.022522,281.449066 
	C541.039978,276.702057 539.716431,274.711273 534.818726,275.193359 
	C531.520874,275.518005 528.161194,275.243805 524.829956,275.191162 
	C521.118713,275.132507 518.858093,273.080200 518.158264,269.608978 
	C517.494751,266.318024 519.111450,263.801300 521.840820,262.031342 
	C523.578552,260.904419 525.565979,260.725952 527.603577,260.735565 
	C533.767639,260.764618 539.931946,260.733307 546.096191,260.727509 
	C551.589111,260.722321 556.149902,258.450684 559.866943,254.613419 
	C567.093811,247.152756 563.968933,236.725830 553.898621,234.155151 
	C551.112427,233.443909 548.316162,233.312515 545.480652,233.315170 
	C528.820496,233.330811 512.160339,233.338257 494.500244,233.347504 
M441.166229,722.193359 
	C452.421326,726.330078 463.633942,730.588501 474.955078,734.535828 
	C478.783508,735.870667 480.065247,737.723877 479.440552,741.898315 
	C476.504211,761.520386 492.343628,777.906494 510.256683,779.658997 
	C530.848083,781.673584 548.108948,765.453979 546.761780,744.438721 
	C546.392273,738.674805 547.819336,735.972046 553.524414,733.958923 
	C590.112793,721.048096 626.758606,708.321045 663.699219,696.447632 
	C689.904907,688.024597 716.473267,681.204712 743.904358,678.222107 
	C751.088135,677.441040 758.313782,677.044495 765.939880,676.437988 
	C762.278442,670.692078 758.316101,667.714905 751.438782,667.764465 
	C725.552124,667.951172 700.426758,672.715088 675.657410,679.560425 
	C650.931519,686.393738 626.688232,694.803650 602.612854,703.641907 
	C583.866943,710.523621 564.813660,716.785583 547.478149,726.945740 
	C543.245239,729.426636 541.149353,728.851440 538.106628,725.108704 
	C527.091797,711.559814 505.778839,708.050903 494.042084,719.596741 
	C485.851746,727.653748 480.329102,726.663757 471.019226,722.375122 
	C439.692474,707.944153 407.026245,696.813477 374.135925,686.463623 
	C341.013306,676.040649 307.494263,667.696106 272.373840,668.012817 
	C266.118408,668.069336 262.892548,671.367554 259.860321,675.707458 
	C260.949402,677.033386 262.012451,676.872253 262.973114,676.875305 
	C290.234924,676.961914 316.430634,683.296997 342.476807,690.464111 
	C375.570343,699.570374 408.066772,710.543762 441.166229,722.193359 
M427.118103,574.470947 
	C384.898132,554.632019 340.961182,543.698425 293.957672,548.637756 
	C296.242310,549.541321 298.616852,550.022888 301.010651,550.372742 
	C303.479156,550.733521 305.975220,550.905334 308.444122,551.263855 
	C341.735291,556.097778 373.823395,565.223022 404.864899,578.155884 
	C448.715668,596.425537 485.541626,623.226257 510.455231,664.611267 
	C511.093445,665.671448 511.491272,667.171692 513.453369,667.125427 
	C514.159729,666.169189 515.016296,665.160339 515.709473,664.049500 
	C536.067200,631.426758 563.833679,607.077759 597.856689,589.375732 
	C631.090149,572.084534 666.427002,561.253845 702.915405,553.736145 
	C712.165894,551.830200 721.525146,550.452271 730.834412,548.831726 
	C688.238342,544.166382 647.977966,553.011047 609.204346,569.715271 
	C570.308533,586.472107 536.901733,610.378174 512.908081,647.194092 
	C501.713470,630.584778 489.426117,616.641602 474.865021,604.797668 
	C460.335968,592.979797 444.833160,582.685852 427.118103,574.470947 
M630.577637,667.177551 
	C617.121765,673.767761 603.448242,679.996948 592.140747,690.483948 
	C640.288025,673.739929 688.160706,656.430115 740.177124,654.187683 
	C737.800476,650.200500 733.851562,649.015076 731.767700,646.098572 
	C728.338867,641.299805 723.734863,640.794312 718.563904,641.448120 
	C712.786133,642.178650 706.939392,642.566467 701.243591,643.707458 
	C676.984985,648.567200 653.667114,656.348877 630.577637,667.177551 
M435.277252,692.704346 
	C436.321533,692.745850 437.194733,694.064575 438.753937,692.918274 
	C426.887787,683.381409 413.836517,676.018127 400.453186,669.452393 
	C371.140259,655.071899 340.424377,645.064148 307.677704,642.163818 
	C303.514313,641.795105 298.868408,639.368286 295.529083,643.502380 
	C292.772583,646.914856 288.561188,648.938293 286.343353,652.649170 
	C287.950500,654.951538 289.901489,654.651367 291.672882,654.612000 
	C305.932587,654.294800 319.808380,657.057312 333.629089,660.000488 
	C368.389282,667.402832 401.998535,678.439270 435.277252,692.704346 
M493.333832,578.415710 
	C494.280304,586.493835 499.764923,592.134705 507.352325,592.833557 
	C515.232544,593.559387 522.139282,589.414062 524.341797,582.636841 
	C526.672180,575.466125 523.456787,567.683838 516.608765,563.920654 
	C506.341003,558.278198 494.913940,564.996338 493.333832,578.415710 
M524.334534,533.145203 
	C524.000610,539.981812 526.724121,543.716675 532.567261,544.434814 
	C536.928162,544.970764 541.844666,541.144226 542.613281,536.616089 
	C543.404785,531.953003 540.143372,527.273682 534.914368,526.060425 
	C529.531616,524.811401 526.694702,528.163879 524.334534,533.145203 
M393.169525,718.468262 
	C389.160400,717.679993 385.537811,714.937805 381.040100,716.274414 
	C407.898773,725.585205 434.218384,736.356140 461.677917,743.802429 
	C439.643250,733.908142 416.622009,726.749146 393.169525,718.468262 
M555.730835,560.785583 
	C556.461304,562.076477 556.972961,563.573242 557.960022,564.622742 
	C562.314697,569.252869 569.570068,568.490112 571.674805,563.232727 
	C573.120300,559.621948 573.312805,556.099670 570.245972,553.078491 
	C567.785706,550.654846 564.761047,549.625732 561.574036,550.816528 
	C557.475403,552.347900 555.254456,555.505127 555.730835,560.785583 
M590.983643,736.426270 
	C609.833984,729.764404 628.684326,723.102478 647.534668,716.440613 
	C647.311096,715.825195 647.087524,715.209778 646.863953,714.594360 
	C620.113159,722.386719 594.228943,732.625244 568.366882,742.943359 
	C576.180359,742.512939 582.962891,738.791748 590.983643,736.426270 
z"/>
<path fill="#000000" opacity="1.000000" stroke="none" 
	d="
M349.392578,454.719910 
	C317.948944,448.715424 286.909271,442.864410 255.892075,436.896454 
	C250.250061,435.810852 247.124115,431.983246 247.894943,427.837067 
	C248.707169,423.468384 253.210785,421.183563 259.024902,422.281525 
	C298.717712,429.777557 338.408295,437.285187 378.094238,444.817352 
	C379.882477,445.156708 381.706207,445.569550 383.361816,446.294403 
	C387.067749,447.916931 389.423615,450.721649 388.472137,454.929413 
	C387.525879,459.113983 384.330811,461.057404 380.199493,460.408173 
	C371.503784,459.041718 362.862579,457.327393 354.201447,455.742584 
	C352.729553,455.473206 351.269653,455.138062 349.392578,454.719910 
z"/>
<path fill="#000000" opacity="1.000000" stroke="none" 
	d="
M657.130554,458.298584 
	C653.111328,459.023285 649.538147,459.900146 645.911865,460.331665 
	C641.017273,460.914124 637.419128,458.520905 636.783325,454.649933 
	C636.119812,450.610474 638.380371,446.885742 643.100952,445.851166 
	C653.324463,443.610596 663.644653,441.807770 673.933777,439.870972 
	C703.505615,434.304504 733.080933,428.757050 762.657654,423.216461 
	C764.454590,422.879822 766.266663,422.561676 768.086121,422.419281 
	C773.021545,422.033020 776.333557,424.280396 777.080139,428.401367 
	C777.754456,432.123260 774.968140,435.854340 770.299194,436.820801 
	C760.853882,438.775970 751.362549,440.510132 741.884460,442.305206 
	C713.775452,447.628784 685.663635,452.937683 657.130554,458.298584 
z"/>
<path fill="#000000" opacity="1.000000" stroke="none" 
	d="
M296.268890,484.625183 
	C315.941254,487.436432 335.177887,490.168945 354.394592,493.035126 
	C358.569702,493.657837 362.169983,495.562347 362.967072,500.190918 
	C363.494537,503.253601 361.816620,505.666565 359.276611,507.300934 
	C356.700470,508.958527 353.793915,508.461914 351.014801,508.037811 
	C340.841980,506.485413 330.696045,504.755951 320.519775,503.227631 
	C302.621979,500.539642 284.707611,497.962158 266.805023,495.305939 
	C264.506714,494.964966 262.148834,494.684662 259.973663,493.929504 
	C256.005157,492.551758 254.143845,489.520721 254.788834,485.356445 
	C255.433411,481.194885 258.365936,479.236420 262.304047,479.743378 
	C273.500641,481.184784 284.655029,482.954132 296.268890,484.625183 
z"/>
<path fill="#000000" opacity="1.000000" stroke="none" 
	d="
M748.370972,496.514099 
	C722.640015,500.418304 697.349365,504.260071 672.055603,508.081268 
	C666.700928,508.890228 663.459534,507.135193 662.682983,503.104462 
	C661.749512,498.259338 664.383118,494.578339 669.858521,493.718964 
	C695.781921,489.650360 721.720764,485.679840 747.658447,481.702759 
	C752.417236,480.973083 757.178772,480.154175 761.970520,479.777161 
	C766.836731,479.394318 770.531372,482.107849 770.919739,485.793823 
	C771.342407,489.806213 768.261047,493.556274 763.605408,494.340912 
	C758.695007,495.168488 753.743652,495.753479 748.370972,496.514099 
z"/>
<path fill="#000000" opacity="1.000000" stroke="none" 
	d="
M693.048828,361.101562 
	C693.094238,364.984772 695.564087,366.679077 698.010498,368.508026 
	C706.198547,374.629333 710.106140,382.582764 707.638367,392.860321 
	C705.458069,401.941101 697.223755,408.610260 687.856201,409.267853 
	C678.668335,409.912842 669.966858,404.218689 666.360107,395.201111 
	C662.879761,386.499237 665.074158,376.604980 672.522156,370.884369 
	C676.801392,367.597595 680.096191,364.205139 681.170044,358.704834 
	C681.726868,355.852814 683.687683,353.537994 687.153320,353.727997 
	C691.539917,353.968506 692.118835,357.477173 693.048828,361.101562 
M694.315796,390.437653 
	C695.322205,386.904602 695.572937,383.476288 692.304260,380.906738 
	C689.881958,379.002533 687.247009,377.720795 684.027832,379.123474 
	C680.302612,380.746674 678.237244,383.437378 678.283020,387.587799 
	C678.324585,391.357544 680.208923,393.947357 683.676270,395.140930 
	C688.121826,396.671204 691.376953,394.658386 694.315796,390.437653 
z"/>
<path fill="#000000" opacity="1.000000" stroke="none" 
	d="
M358.684082,379.676086 
	C362.496368,390.561188 357.665894,402.566742 347.978790,407.052246 
	C337.569733,411.872040 326.504059,408.693115 320.505341,399.159790 
	C314.184021,389.113770 316.065369,377.337708 325.425781,370.269073 
	C329.291229,367.349976 332.365509,364.303131 333.073425,359.188446 
	C333.474884,356.287964 335.165558,353.731628 338.643982,353.806213 
	C342.247772,353.883453 343.918396,356.264923 344.353699,359.592834 
	C344.885437,363.657776 346.992218,366.512909 350.330994,368.879944 
	C354.021423,371.496246 357.042694,374.853729 358.684082,379.676086 
M345.703918,382.800934 
	C343.514587,380.147400 341.068390,378.046753 337.259766,378.856262 
	C332.066925,379.960022 329.027191,384.772705 330.438507,389.661194 
	C331.697723,394.022797 336.769867,396.701172 341.094666,395.288300 
	C346.158478,393.634003 348.176056,388.832489 345.703918,382.800934 
z"/>
<path fill="#000000" opacity="1.000000" stroke="none" 
	d="
M417.591064,339.725616 
	C419.955994,340.071686 421.946777,340.257996 423.897095,340.647186 
	C426.493439,341.165314 428.055450,342.853729 428.077484,345.495270 
	C428.097534,347.896851 426.630859,349.515259 424.393585,350.294708 
	C423.307526,350.673065 422.139648,350.856598 420.993164,351.015106 
	C412.629639,352.171295 411.959381,352.776031 410.352356,361.350403 
	C409.778931,364.409882 408.383240,366.854736 405.101379,367.079895 
	C401.686035,367.314209 399.652496,364.840973 399.485901,361.868256 
	C399.043182,353.969849 394.593079,350.837799 387.318207,350.274323 
	C384.470520,350.053711 382.777588,348.290100 382.687531,345.354889 
	C382.592621,342.262512 384.547058,341.089752 387.290222,340.470306 
	C391.098175,339.610382 395.366577,339.676941 397.860291,335.775299 
	C399.155457,333.748932 399.620300,331.551453 399.752014,329.167938 
	C399.937439,325.811462 401.673248,323.095947 405.130859,323.138153 
	C408.666809,323.181213 410.234039,326.110504 410.226105,329.392365 
	C410.213745,334.516968 412.325562,337.965393 417.591064,339.725616 
z"/>
<path fill="#000000" opacity="1.000000" stroke="none" 
	d="
M620.135498,323.143585 
	C623.860657,323.725037 625.019470,325.992249 625.342041,329.135620 
	C626.104309,336.562836 628.367126,338.836945 635.767883,339.958740 
	C636.260193,340.033356 636.752563,340.110840 637.241455,340.204895 
	C640.241150,340.781891 642.907593,342.045807 642.787476,345.510529 
	C642.671326,348.861572 640.216370,350.036438 637.048279,350.550201 
	C627.614746,352.079834 627.351318,352.443237 625.266235,361.762756 
	C624.633362,364.591522 623.182861,366.885651 620.125427,367.034790 
	C616.845886,367.194763 615.651245,364.537140 614.925659,361.891937 
	C612.282959,352.257996 612.319153,352.245026 602.632385,350.962372 
	C599.641113,350.566315 596.865845,349.694733 596.799988,346.078674 
	C596.733093,342.403534 599.037415,340.978729 602.538086,340.618561 
	C611.379333,339.709076 613.070923,337.978424 614.806335,328.835449 
	C615.346191,325.991211 616.847351,323.971985 620.135498,323.143585 
z"/>
<path fill="#000000" opacity="1.000000" stroke="none" 
	d="
M699.818970,320.531189 
	C698.669495,322.576263 697.092346,323.647797 695.284790,323.937286 
	C692.128296,324.442810 690.483337,326.429352 688.948059,328.970795 
	C686.395691,333.195892 683.573914,333.257111 681.222412,328.967560 
	C679.544434,325.906525 677.530701,324.230621 673.974854,323.863525 
	C671.840576,323.643219 669.901428,322.174896 669.821899,319.569672 
	C669.737793,316.813812 671.590637,315.929474 673.964233,315.561157 
	C678.173462,314.908081 680.236023,312.282745 680.771057,308.154053 
	C681.100342,305.613007 681.761353,302.948364 685.000732,302.910980 
	C688.217590,302.873779 689.037231,305.402161 689.306335,308.020386 
	C689.721069,312.055237 691.864868,314.200104 695.828796,315.043304 
	C698.336609,315.576752 700.629089,316.823395 699.818970,320.531189 
z"/>
<path fill="#000000" opacity="1.000000" stroke="none" 
	d="
M328.133667,315.059326 
	C332.204163,314.530823 334.066956,312.240906 334.581482,308.764282 
	C335.012543,305.851501 335.529083,302.791687 339.092255,302.596313 
	C343.033539,302.380157 343.239838,305.634583 343.460724,308.516571 
	C343.743652,312.208221 346.028290,313.948395 349.325256,314.935059 
	C351.588409,315.612366 353.905975,316.607910 353.732971,319.536530 
	C353.560425,322.457672 351.279480,323.158600 348.839111,323.524567 
	C345.726501,323.991364 344.143219,326.024048 342.772034,328.749481 
	C340.687805,332.892242 337.735382,333.047150 335.436279,329.105560 
	C333.692932,326.116760 331.366119,324.448517 328.148834,323.687317 
	C325.922211,323.160522 324.024902,322.169312 323.830750,319.571320 
	C323.625427,316.823914 325.656372,315.932861 328.133667,315.059326 
z"/>
<path fill="#000000" opacity="1.000000" stroke="none" 
	d="
M619.205811,297.170624 
	C614.208435,295.952118 611.639404,293.145172 611.714111,288.253357 
	C611.774963,284.272186 613.919006,281.680298 617.492859,280.370239 
	C621.455872,278.917480 624.661377,280.633850 627.264954,283.505188 
	C629.307922,285.758240 630.014526,288.577484 628.691589,291.378845 
	C626.931946,295.104980 623.901184,297.233551 619.205811,297.170624 
z"/>
<path fill="#000000" opacity="1.000000" stroke="none" 
	d="
M275.809021,334.448914 
	C283.114777,333.400085 288.317505,338.140533 286.767853,344.061646 
	C285.698334,348.148254 282.961151,350.835968 278.710663,350.946533 
	C274.858734,351.046692 272.062317,348.679840 271.071686,344.992950 
	C269.889679,340.593872 270.904541,336.768616 275.809021,334.448914 
z"/>
<path fill="#000000" opacity="1.000000" stroke="none" 
	d="
M398.144287,395.228241 
	C402.165588,392.228333 405.915466,392.077972 409.156403,395.511902 
	C412.001190,398.526062 412.947418,402.160431 410.479523,405.941284 
	C408.060974,409.646606 404.497803,410.516876 400.476746,409.179810 
	C395.241364,407.438995 394.104309,401.199799 398.144287,395.228241 
z"/>
<path fill="#000000" opacity="1.000000" stroke="none" 
	d="
M741.518433,335.392334 
	C746.483643,333.279572 750.309387,334.349365 752.986084,338.586517 
	C755.137756,341.992462 754.387146,345.249512 751.682678,348.056152 
	C748.556580,351.300446 743.619385,351.494232 740.540100,348.590118 
	C736.676453,344.946259 736.913330,340.259186 741.518433,335.392334 
z"/>
<path fill="#000000" opacity="1.000000" stroke="none" 
	d="
M407.155884,280.732300 
	C412.820099,284.179749 414.288574,287.437164 412.404999,291.729370 
	C410.621704,295.793152 406.022949,298.192108 402.278870,296.706543 
	C398.438446,295.182739 395.890533,292.358978 396.333984,287.985474 
	C396.833008,283.063782 401.094147,280.230011 407.155884,280.732300 
M409.321655,289.801300 
	C410.636871,285.832153 408.102661,284.281006 405.029510,283.364594 
	C403.078156,282.782684 401.195496,283.553406 400.647339,285.631897 
	C399.925964,288.367157 402.020020,289.977844 403.892242,291.274963 
	C405.593597,292.453674 407.399994,291.777374 409.321655,289.801300 
z"/>
<path fill="#000000" opacity="1.000000" stroke="none" 
	d="
M553.297363,473.486572 
	C562.289795,482.567383 560.990051,493.368774 550.639526,498.309998 
	C544.595520,501.195312 538.286621,499.856873 533.984436,494.776489 
	C529.802917,489.838562 529.424683,482.230347 533.080811,476.599152 
	C536.305847,471.631927 543.041260,469.349701 548.962097,471.320312 
	C550.365479,471.787415 551.655029,472.596436 553.297363,473.486572 
z"/>
<path fill="#000000" opacity="1.000000" stroke="none" 
	d="
M474.128571,472.872009 
	C481.013916,469.569946 486.216034,470.306274 490.824066,474.978912 
	C494.492035,478.698303 495.588715,484.548492 493.508270,489.297516 
	C491.217560,494.526398 485.764343,497.748444 479.811127,497.290741 
	C474.342834,496.870270 470.790955,493.542816 469.277252,488.704529 
	C467.425201,482.784943 468.434326,477.171051 474.128571,472.872009 
z"/>
<path fill="#000000" opacity="1.000000" stroke="none" 
	d="
M504.448669,454.208069 
	C505.738831,447.358948 510.221191,444.009308 516.051636,445.180237 
	C521.717834,446.318237 525.138184,451.287292 524.166687,456.969788 
	C523.236145,462.413055 517.932739,466.091492 512.338806,465.173492 
	C507.646698,464.403503 505.066864,460.957611 504.448669,454.208069 
z"/>
<path fill="#000000" opacity="1.000000" stroke="none" 
	d="
M521.769958,337.145630 
	C519.272156,334.429504 518.728516,331.775024 521.702637,329.695770 
	C523.788574,328.237396 525.851135,329.184235 527.263245,331.236298 
	C528.320129,332.772064 528.258057,334.406677 527.244568,335.907135 
	C525.977234,337.783417 524.277954,338.498840 521.769958,337.145630 
z"/>
<path fill="#000000" opacity="1.000000" stroke="none" 
	d="
M523.740967,316.598999 
	C521.985535,318.425049 520.333557,318.659271 518.724548,317.138031 
	C517.647949,316.120178 517.520264,314.785370 518.251160,313.507629 
	C518.986328,312.222412 520.220459,311.715179 521.638184,312.076355 
	C523.816589,312.631348 524.460571,314.147949 523.740967,316.598999 
z"/>
<path fill="#000000" opacity="1.000000" stroke="none" 
	d="
M495.964050,734.101074 
	C507.248138,722.592041 523.150024,723.058411 531.079102,734.985107 
	C535.792480,742.074768 536.552429,749.640015 531.948425,757.053467 
	C527.256714,764.608154 519.976257,768.237488 511.275482,767.757324 
	C502.312866,767.262817 496.140839,762.042114 492.934540,753.735535 
	C490.292297,746.890137 491.322632,740.334412 495.964050,734.101074 
z"/>
</svg>